<?xml version="1.0" encoding="utf-8" ?><svg xmlns="http://www.w3.org/2000/svg" xmlns:xlink="http://www.w3.org/1999/xlink" width="1280" height="832" viewBox="0 0 1280 832"><path fill="#0D1117" d="M0 0L1280 0L1280 832L0 832L0 0Z"/><path fill="#E2E8F0" d="M416.716 381.638C426.112 373.317 473.463 330.943 481.332 328.798C488.14 326.943 534.278 328.323 544.839 328.326C528.186 342.392 511.444 356.351 494.614 370.202C462.27 397.764 428.956 424.452 396.476 451.875C388.033 459.003 379.428 466.259 370.673 472.97L370.718 328.432C386.025 328.41 401.331 328.505 416.636 328.718C416.751 346.358 416.778 363.998 416.716 381.638Z"/><path fill="#1D4DEF" d="M440.541 432.14C444.386 431.867 452.794 431.768 455.932 434.361C485.994 459.2 517.01 483.891 546.739 509.104L450.938 508.942C415.474 508.822 380.01 508.944 344.548 509.307C350.591 503.568 358.129 498.216 364.541 492.772C387.526 473.251 411.158 454.51 434.235 435.1C436.01 433.607 438.342 432.759 440.541 432.14Z"/><path fill="#1D4DEF" d="M547.372 340.597C549.623 343.079 553.198 359.249 553.331 362.536C553.949 377.854 553.787 393.882 553.81 409.217L553.863 500.143C539.14 487.681 523.312 475.008 508.371 462.687C500.372 455.976 492.285 449.369 484.115 442.867C478.604 438.43 473.248 434.257 468.215 429.304C463.317 424.484 461.445 413.965 466.323 408.654C472.823 401.449 481.374 396.151 488.595 389.762C507.471 373.058 528.959 357.682 547.372 340.597Z"/><path fill="#E2E8F0" d="M659.214 345.422L681.025 345.575C670.503 358.94 651.525 379.972 640.052 392.266C648.184 402.379 656.248 412.545 664.245 422.765C671.107 431.28 677.856 439.886 684.489 448.581L661.915 448.419C650.601 435.337 639.213 420.231 628.113 406.693L617.123 419.1L617.22 448.615L598.351 448.594L598.594 345.509L616.926 345.516L617.234 394.031C621.6 387.626 626.854 382.311 631.934 376.533C640.935 366.293 650.786 356.102 659.214 345.422Z"/><path fill="#E2E8F0" d="M705.023 372.692C733.201 370.323 749.572 380.938 748.706 410.143C748.343 422.404 748.682 435.88 748.673 448.245L730.35 448.226L730.324 442.036C725.889 445.569 722.587 447.418 716.913 448.614C707.224 450.614 697.138 448.61 688.949 443.059C683.467 438.123 681.423 433.711 681.187 426.379C680.308 399.136 711.91 402.853 729.987 402.537C724.428 382.883 706.206 386.97 691.83 394.499C689.001 390.182 687.297 386.618 685.015 382C691.881 376.72 696.827 374.798 705.023 372.692Z"/><path fill="#0D1117" d="M709.039 415.825C715.565 415.617 722.722 415.842 729.313 415.888C729.375 427.57 731.779 431.006 718.568 434.924C695.747 438.367 692.373 419.65 709.039 415.825Z"/><path fill="#E2E8F0" d="M900.129 372.68C902.551 372.447 904.983 372.32 907.416 372.298C917.416 372.225 927.081 374.383 934.372 381.691C938.152 385.539 940.796 390.355 942.014 395.61C943.85 403.198 943.197 438.088 943.203 448.226C937.515 448.145 930.907 448.851 925.428 448.021C924.041 446.131 924.748 445.329 924.369 442.667C922.804 442.427 915.729 448.552 908.922 449.078C898.127 449.911 890.778 448.812 882.102 442.156C877.683 437.338 875.692 433.665 875.519 427.02C874.781 398.79 905.702 403.154 924.688 402.838C919.141 382.444 901.067 387.22 886.203 394.448C883.725 390.054 881.52 386.162 879.364 381.593C886.052 376.715 892.271 374.559 900.129 372.68Z"/><path fill="#0D1117" d="M905.723 415.959C911.804 415.852 917.827 416.059 923.878 415.985C923.856 420.332 923.911 424.737 923.717 429.072C918.588 433.284 918.424 433.433 911.945 435.334C903.022 436.303 888.049 433.944 895.416 419.669C897.007 416.588 902.432 416.222 905.723 415.959Z"/><path fill="#1D4DEF" d="M342.168 347.959C348.421 349.199 356.099 358.081 359.954 363.097L360.044 436.164C360.057 448.633 360.331 461.8 359.728 474.243C359.322 482.61 352.21 488.661 346.138 493.724C342.604 496.436 339.047 499.116 335.466 501.766L335.424 395.357C335.423 382.574 335.061 366.921 335.866 354.018C336.025 351.471 340.034 349.205 342.168 347.959Z"/><path fill="#E2E8F0" d="M795.46 373.599L818.218 373.783C823.91 381.742 828.363 389.027 834.461 397.003C840.011 389.353 845.413 381.596 850.663 373.737L871.545 373.636C863.787 385.229 853.268 398.793 844.865 410.186C848.676 414.867 854.1 423.129 857.913 428.366C861.355 433.094 869.321 443.693 871.735 448.267L850.877 448.221C844.585 440.722 839.256 432.611 833.432 424.721C828.224 432.702 822.261 440.604 816.488 448.189L794.832 448.195L822.675 411.384C813.701 397.166 804.977 386.962 795.46 373.599Z"/><path fill="#E2E8F0" d="M764.317 374.244L783.879 374.329C783.799 398.949 783.89 423.569 784.152 448.188C778.028 448.438 770.377 448.23 764.13 448.239L764.317 374.244Z"/><path fill="#E2E8F0" d="M772.503 340.938C778.99 339.899 785.107 344.272 786.223 350.747C787.34 357.223 783.042 363.393 776.581 364.587C772.332 365.373 767.989 363.813 765.21 360.503C762.432 357.194 761.648 352.645 763.157 348.596C764.666 344.546 768.236 341.621 772.503 340.938Z"/><path fill="#E2E8F0" d="M596.806 475.619C601.313 475.643 606.737 475.52 611.275 475.866C611.96 475.918 612.272 478.854 612.398 479.458C614.682 481.082 614.773 481.112 617.461 480.383C617.674 484.929 617.612 489.879 617.522 494.447C616.74 494.842 614.155 494.391 613.163 494.208C609.223 494.832 601.157 494.575 596.833 494.581L596.806 475.619Z"/><path fill="#0D1117" d="M613.163 494.208C612.856 493.297 612.548 492.386 612.241 491.475C611.332 489.785 603.289 491.329 602.812 490.695C597.008 482.979 613.543 490.329 611.287 483.999C610.195 480.935 599.66 485.806 602.071 480.054C602.503 479.023 610.908 479.443 612.398 479.458C614.682 481.082 614.773 481.112 617.461 480.383C617.674 484.929 617.612 489.879 617.522 494.447C616.74 494.842 614.155 494.391 613.163 494.208Z"/><path fill="#E2E8F0" d="M617.461 480.383C618.187 479.829 619.973 479.132 620.408 479.532C624.233 483.053 626.28 476.581 630.994 481.261C632.414 482.671 634.15 479.38 635.94 479.527C642.754 478.967 643.276 484.171 643.124 489.789C643.114 490.191 644.066 497.136 638.72 494.046C637.101 493.11 641.177 480.045 633.235 484.191C631.538 484.99 633.221 492.559 632.112 494.178C631.952 494.498 628.217 495.002 628.059 493.528C627.763 490.761 628.031 488.491 627.569 485.652C627.443 486.768 627.229 493.723 627.089 493.955C627.868 493.512 622.156 494.371 622.313 494.343C620.497 494.54 619.308 494.488 617.522 494.447C617.612 489.879 617.674 484.929 617.461 480.383Z"/><path fill="#0D1117" d="M622.313 494.343C622.286 492.201 621.448 484.987 623.747 483.94C625.488 483.146 626.876 483.823 627.569 485.652C627.443 486.768 627.229 493.723 627.089 493.955C627.868 493.512 622.156 494.371 622.313 494.343Z"/><path fill="#E2E8F0" d="M835.703 475.642C838.418 475.621 841.134 475.625 843.849 475.653C848.944 475.75 853.215 477.991 852.614 483.513C852.303 486.363 851.451 486.675 849.412 488.391C848.08 489.512 853.493 493.207 851.73 494.562C851.484 494.739 851.238 494.917 850.991 495.095C844.575 493.556 848.806 493.247 844.674 490.081C838.978 485.717 842.173 495.494 839.056 494.499C838.715 494.39 836.159 494.7 836.071 493.99C835.365 488.262 835.685 481.59 835.703 475.642Z"/><path fill="#0D1117" d="M840.725 479.495C845.979 479.631 848.832 479.357 847.256 485.505C839.984 486.224 840.545 486.564 840.725 479.495Z"/><path fill="#E2E8F0" d="M906.866 474.261C907.291 474.265 911.549 474.019 911.587 474.774C911.896 481.043 911.802 487.521 911.627 493.809C911.589 495.179 908.151 494.4 907.534 494.289C904.371 493.716 903.312 495.103 899.165 494.575C895.423 491.405 893.544 488.037 896.088 483.19C896.99 481.491 898.543 480.232 900.391 479.701C904.584 478.536 905.708 481.958 906.628 481.669C907.1 480.886 906.868 475.513 906.866 474.261Z"/><path fill="#0D1117" d="M902.272 483.502C903.617 483.035 905.11 483.334 906.172 484.284C907.233 485.235 907.695 486.686 907.378 488.075C907.061 489.464 906.016 490.572 904.648 490.968C902.608 491.558 900.469 490.416 899.825 488.392C899.181 486.368 900.266 484.2 902.272 483.502Z"/><path fill="#E2E8F0" d="M705.646 475.681C706.451 475.696 710.051 475.577 710.281 475.962C713.457 481.359 715.967 487.504 718.533 493.255C718.915 494.297 718.324 494.38 717.509 494.496C712.161 495.258 714.443 492.484 711.834 490.652C709.358 490.665 706.255 490.419 703.884 490.929C702.544 491.568 703.004 493.11 701.977 494.1C701.601 494.805 697.419 494.563 697.546 494.059C698.787 489.112 703.641 480.062 705.646 475.681Z"/><path fill="#0D1117" d="M707.788 481.1C709.317 482.537 711.256 485.326 709.643 487.28C704.224 486.365 704.771 486.584 707.788 481.1Z"/><path fill="#E2E8F0" d="M929.623 490.059C930.621 491.423 932.014 491.878 930.142 493.349C924.916 497.456 913.286 491.616 916.487 485.082C920.695 476.491 929.19 477.769 932.872 485.883C934.477 489.521 932.035 489.337 929.623 490.059Z"/><path fill="#0D1117" d="M932.872 485.883C934.477 489.521 932.035 489.337 929.623 490.059C927.49 490.746 923.15 492.581 921.503 489.164C921.377 488.274 922.858 488.45 923.077 488.409C927.245 487.637 931.161 490.655 932.743 486.235L932.872 485.883Z"/><path fill="#0D1117" d="M923.673 482.147C925.126 482.613 929.716 483.908 926.87 485.833C921.647 485.645 919.425 486.583 923.673 482.147Z"/><path fill="#E2E8F0" d="M876.228 483.445C877.52 478.218 887.885 478.748 889.99 482.886C891.122 485.11 890.538 490.183 890.708 492.878C890.926 496.359 886.162 493.476 885.638 493.685C879.643 496.076 877.423 495.011 875.428 489.225C875.384 489.794 875.34 490.043 875.221 490.32L875.164 490.306C873.845 487.53 877.438 486.081 878.068 485.431C877.772 484.821 876.052 484.566 875.544 483.627L875.569 483.553C875.789 483.517 876.009 483.481 876.228 483.445Z"/><path fill="#0D1117" d="M876.228 483.445C880.084 484.906 885.775 480.896 885.898 485.085C884.747 486.975 880.302 483.751 875.428 489.225C875.384 489.794 875.34 490.043 875.221 490.32L875.164 490.306C873.845 487.53 877.438 486.081 878.068 485.431C877.772 484.821 876.052 484.566 875.544 483.627L875.569 483.553C875.789 483.517 876.009 483.481 876.228 483.445Z"/><path fill="#0D1117" d="M881.249 488.177C883.959 488.31 887.149 487.562 885.603 491.319L885.332 492.007C882.013 491.773 880.044 492.124 881.249 488.177Z"/><path fill="#E2E8F0" d="M817.536 489.468C818.418 491.393 820.029 492.675 817.478 493.727C815.727 494.622 810.865 495.109 809.023 493.986C794.555 485.164 815.17 471.261 820.333 485.906C820.928 487.596 819.989 488.471 818.227 488.819L817.536 489.468Z"/><path fill="#0D1117" d="M817.536 489.468C815.55 490.404 811.174 492.993 809.594 489.543C809.865 487.611 816.648 488.672 818.227 488.819L817.536 489.468Z"/><path fill="#0D1117" d="M811.059 482.119C812.894 482.738 816.609 483.657 814.345 486C809.352 485.553 807.928 486.62 811.059 482.119Z"/><path fill="#E2E8F0" d="M869 490.064C874.566 493.997 865.916 494.871 863.121 494.487C860.975 494.199 859.054 493.006 857.842 491.211C856.668 489.514 856.277 487.394 856.77 485.39C857.888 480.886 862.947 478.829 867.191 480.096C870.418 481.059 871.372 483.402 872.923 486.09L873.021 485.678C873.099 485.356 873.105 485.145 873.315 484.921C873.451 485.534 873.225 488.83 872.726 489.454C871.996 489.739 869.924 489.893 869 490.064Z"/><path fill="#0D1117" d="M872.923 486.09L873.021 485.678C873.099 485.356 873.105 485.145 873.315 484.921C873.451 485.534 873.225 488.83 872.726 489.454C871.996 489.739 869.924 489.893 869 490.064C867.371 490.758 861.076 492.823 862.026 488.833C862.521 486.754 871.105 491.163 872.923 486.09Z"/><path fill="#0D1117" d="M862.799 482.856C864.344 482.912 869.28 483.231 866.814 485.929C862.347 485.685 860.52 486.975 862.799 482.856Z"/><path fill="#E2E8F0" d="M754.761 474.351C755.763 474.41 758.505 474.288 758.913 474.928C761.405 478.844 755.75 482.631 762.217 480.175C771.63 476.601 771.459 488.095 770.322 493.966C770.211 494.542 765.801 495.219 765.868 492.902L765.897 492.105C765.89 488.83 767.236 482.952 762.203 483.572C755.491 484.397 763.949 497.373 755.19 494.074C754.647 493.869 754.748 476.681 754.761 474.351Z"/><path fill="#E2E8F0" d="M654.248 479.639C663.824 479.295 662.1 486.852 662.334 493.811C662.406 495.944 657.295 493.14 656.143 494.072C654.469 495.425 651.155 494.526 649.112 493.934C647.564 491.114 646.921 490.625 648.882 487.704C650.791 484.86 658.137 486.679 657.116 484.609C655.497 481.589 650.576 484.56 649.31 483.526C645.306 480.257 653.742 479.722 654.248 479.639Z"/><path fill="#0D1117" d="M654.037 488.118C657.971 489.043 658.074 488.93 655.957 492.373C653.163 491.546 650.333 490.885 654.037 488.118Z"/><path fill="#E2E8F0" d="M796.842 481.431C797.76 478.478 801.495 480.238 801.332 480.687C799.703 485.162 798.064 489.933 795.86 494.14C795.567 494.7 791.291 494.498 791.191 494.344C788.614 490.364 787.013 485.102 785.207 480.667C785.142 480.508 785.125 480.128 785.319 480.03C790.137 478.074 790.309 482.357 791.356 485.036C793.522 482.658 794.184 483.241 796.842 481.431Z"/><path fill="#0D1117" d="M791.356 485.036C793.522 482.658 794.184 483.241 796.842 481.431C794.612 487.691 794.339 493.056 791.356 485.036Z"/><path fill="#E2E8F0" d="M742.02 479.511C744.189 479.679 755.468 481.675 749.076 484.583C746.667 485.678 743.943 482.083 741.882 483.925C737.759 487.608 741.229 494.456 747.499 489.339C756.862 493.734 742.84 495.575 739.065 493.843C737.464 493.112 736.238 491.749 735.678 490.08C733.741 484.155 736.768 481.156 742.02 479.511Z"/><path fill="#E2E8F0" d="M678.581 473.534C679.201 473.579 682.781 473.586 682.834 474.185C683.371 480.232 683.096 488.608 683.086 494.561C682.172 494.534 679.002 494.631 678.917 494.153C678.246 490.393 678.574 477.035 678.581 473.534Z"/><path fill="#E2E8F0" d="M722.61 479.836C726.548 479.871 724.736 479.628 727.746 481C727.973 480.96 733.21 477.567 732.255 482.538C731.797 484.92 728.117 482.604 727.428 486.792C727.425 488.701 727.75 492.288 727.091 494.066C726.794 494.866 723.129 494.601 723.042 494.103C722.32 489.928 722.612 484.181 722.61 479.836Z"/><path fill="#1D4DEF" d="M359.725 331.858C360.766 333.104 360.529 345.588 360.573 348.134L354.941 343.68C353.23 342.393 351.776 341.078 350.18 339.662C353.169 337.143 356.631 334.197 359.725 331.858Z"/><path fill="#E2E8F0" d="M945.547 479.348C946.7 480.58 946.832 481.625 946.109 483.447C945.932 483.891 944.711 483.694 944.387 483.78C939.725 485.025 942.674 490.886 941.323 493.871C941.099 494.357 937.934 494.58 937.334 494.671C937.276 491.589 937.022 483.288 937.689 480.238C938.065 478.519 941.722 480.9 942.272 481.144C942.636 481.11 944.947 479.67 945.547 479.348Z"/><path fill="#E2E8F0" d="M667.632 479.835C673.432 479.857 672.617 479.533 672.604 485.373C672.597 488.397 672.571 491.54 672.562 494.574C666.458 494.332 667.822 494.97 667.708 488.59C667.657 485.687 667.678 482.74 667.632 479.835Z"/><path fill="#E2E8F0" d="M776.927 479.94C777.466 479.984 780.863 480.033 780.928 480.58C781.348 484.13 781.588 491.678 780.803 494.926C780.129 494.784 776.913 494.422 776.84 493.819C776.424 490.362 776.143 483.16 776.927 479.94Z"/><path fill="#E2E8F0" d="M668.523 472.856C669.325 472.236 670.406 472.117 671.324 472.545C672.243 472.973 672.845 473.878 672.887 474.891C672.928 475.903 672.401 476.855 671.521 477.356C670.284 478.062 668.713 477.69 667.923 476.505C667.134 475.319 667.396 473.725 668.523 472.856Z"/><path fill="#E2E8F0" d="M777.608 472.71C778.501 472.318 779.536 472.436 780.318 473.018C781.1 473.601 781.508 474.559 781.388 475.527C781.267 476.495 780.636 477.324 779.735 477.697C778.362 478.266 776.787 477.623 776.204 476.256C775.621 474.889 776.247 473.307 777.608 472.71Z"/></svg>